<svg width="40" height="40" viewBox="0 0 40 40" fill="none" xmlns="http://www.w3.org/2000/svg">
<path d="M0 20C0 8.95431 8.95431 0 20 0C31.0457 0 40 8.95431 40 20C40 31.0457 31.0457 40 20 40C8.95431 40 0 31.0457 0 20Z" fill="#3B5998"/>
<path fill-rule="evenodd" clip-rule="evenodd" d="M28.0066 11H11.9934C11.4447 11 11 11.4446 11 11.9934V28.0066C11 28.5552 11.4447 29 11.9934 29H20.6143V22.0295H18.2686V19.3129H20.6143V17.3095C20.6143 14.9846 22.0343 13.7186 24.1083 13.7186C25.1018 13.7186 25.9556 13.7926 26.2044 13.8256V16.2553L24.766 16.256C23.6381 16.256 23.4197 16.792 23.4197 17.5785V19.3129H26.1098L25.7595 22.0295H23.4197V29H28.0066C28.5552 29 29 28.5552 29 28.0066V11.9934C29 11.4446 28.5552 11 28.0066 11Z" fill="white"/>
</svg>
