<svg width="40" height="40" viewBox="0 0 40 40" fill="none" xmlns="http://www.w3.org/2000/svg">
<rect width="40" height="40" rx="20" fill="white"/>
<path fill-rule="evenodd" clip-rule="evenodd" d="M28.64 20.2044C28.64 19.5663 28.5827 18.9526 28.4764 18.3635H20V21.8449H24.8436C24.635 22.9699 24.0009 23.9231 23.0477 24.5613V26.8194H25.9564C27.6582 25.2526 28.64 22.9453 28.64 20.2044Z" fill="#4285F4"/>
<path fill-rule="evenodd" clip-rule="evenodd" d="M20 29C22.43 29 24.4673 28.1941 25.9564 26.8195L23.0477 24.5613C22.2418 25.1013 21.2109 25.4204 20 25.4204C17.6559 25.4204 15.6718 23.8372 14.9641 21.71H11.9573V24.0418C13.4382 26.9831 16.4818 29 20 29Z" fill="#34A853"/>
<path fill-rule="evenodd" clip-rule="evenodd" d="M14.9641 21.7101C14.7841 21.1701 14.6818 20.5933 14.6818 20.0001C14.6818 19.4069 14.7841 18.8301 14.9641 18.2901V15.9583H11.9573C11.3477 17.1733 11 18.5478 11 20.0001C11 21.4523 11.3477 22.8269 11.9573 24.0419L14.9641 21.7101Z" fill="#FBBC05"/>
<path fill-rule="evenodd" clip-rule="evenodd" d="M20 14.5795C21.3214 14.5795 22.5077 15.0336 23.4405 15.9255L26.0218 13.3441C24.4632 11.8918 22.4259 11 20 11C16.4818 11 13.4382 13.0168 11.9573 15.9582L14.9641 18.29C15.6718 16.1627 17.6559 14.5795 20 14.5795Z" fill="#EA4335"/>
<rect x="0.5" y="0.5" width="39" height="39" rx="19.5" stroke="#999999" stroke-opacity="0.4"/>
</svg>
