<svg version="1" xmlns="http://www.w3.org/2000/svg" width="933.333" height="933.333" viewBox="0 0 700.000000 700.000000"><path d="M346.7 7.6c-.1.1-6.3.4-13.7.8-13.6.6-16.7.9-29.5 2.6-10.5 1.4-14.3 2-22 3.7-3.8.8-8.1 1.7-9.3 1.9-2.3.5-6.4 1.5-18.2 4.8-44.6 12.3-93.8 39.4-130.5 72-18.4 16.4-40.3 40.4-50.5 55.6-1.3 1.9-2.7 3.7-3 4-.8.7-14.2 21.6-17.3 27.1-20.2 35.4-35.6 79.9-41.3 119.4-.3 2.2-.7 5.1-.9 6.5-.5 3-1.4 13.2-2 21.5-.7 8.9-.7 38.1 0 45 .3 3.3.7 8.7 1 12 .9 9.4 2.8 22.2 5.1 34 9.5 48.8 33.3 100.4 64.9 141.1 14.3 18.2 36.5 41.3 50.8 52.7 1.5 1.2 4 3.2 5.5 4.5 1.5 1.3 6.5 5.1 11.2 8.5 4.7 3.3 8.7 6.4 9 6.7.6.7 11.7 7.7 21.3 13.3 31.1 18.4 69.4 33 105.1 40.2 32.5 6.5 66.2 8.1 101.6 5 3.6-.3 7.6-.7 9-1 14.5-2.2 18.8-2.9 27-4.6 12.3-2.7 11.6-2.5 18-4.3 11.6-3.2 13.7-3.8 19.5-5.8 43.2-14.8 78.1-34.3 111.9-62.5 28.6-23.9 55.7-55.4 73.1-84.8 5.5-9.4 6.4-11 12.4-22.5 15-29.2 28.4-69.4 32.5-97.9 3.8-25.5 4.1-30.5 4-58.1 0-22.9-.7-37.8-1.9-42-.2-.8-.7-3.8-1-6.5-.3-2.8-1.9-11.5-3.5-19.5-3.9-18.4-3.5-16.7-7.1-29-17.9-60.6-54.5-117.5-102.2-159.1C563.2 82 562.8 81.6 559 79c-1.9-1.4-3.7-2.8-4-3.1-.3-.3-4.8-3.5-10.1-7.2-17.1-11.8-37.4-23.3-55.9-31.4-2.5-1.1-6.5-2.9-9-4.1-2.5-1.1-11.7-4.3-20.5-7.2-8.8-2.9-16.7-5.5-17.5-5.8-.8-.3-2.4-.7-3.4-.9-1.1-.2-4.7-1.1-8-1.9-3.4-.9-7.2-1.8-8.6-2-1.4-.2-4.5-.8-7-1.4-2.5-.5-6.3-1.2-8.5-1.6-2.2-.4-4.4-.8-5-.9-.5-.1-3.7-.5-7-.9-3.3-.3-6.9-.8-8-1-3.9-.7-39.2-2.5-39.8-2z"/></svg>