<?xml version="1.0" standalone="no"?>
<!DOCTYPE svg PUBLIC "-//W3C//DTD SVG 20010904//EN"
 "http://www.w3.org/TR/2001/REC-SVG-20010904/DTD/svg10.dtd">
<svg version="1.0" xmlns="http://www.w3.org/2000/svg"
 width="1999.000000pt" height="854.000000pt" viewBox="0 0 1999.000000 854.000000"
 preserveAspectRatio="xMidYMid meet">
<metadata>
Created by potrace 1.16, written by Peter Selinger 2001-2019
</metadata>
<g transform="translate(0.000000,854.000000) scale(0.100000,-0.100000)"
fill="#000000" stroke="none">
<path d="M825 7853 c-73 -20 -185 -86 -243 -145 -62 -63 -76 -81 -107 -148
-32 -66 -36 -349 -33 -1960 l4 -1565 28 -124 c54 -246 121 -410 239 -587 83
-125 296 -342 411 -419 172 -114 420 -218 606 -254 115 -23 310 -31 763 -31
l467 0 72 36 c133 67 221 177 248 311 7 31 10 98 8 147 -4 78 -9 102 -39 166
-46 97 -135 182 -235 224 -68 28 -70 28 -369 37 -473 15 -552 21 -610 48 -116
54 -160 79 -226 129 -39 28 -73 52 -77 52 -4 0 -15 12 -24 28 -10 15 -40 53
-66 84 -56 67 -117 185 -161 311 l-31 89 0 1446 c0 1457 -6 1760 -34 1840 -40
112 -144 217 -264 263 -46 18 -82 23 -182 25 -69 2 -134 0 -145 -3z"/>
<path d="M3886 7644 c-127 -31 -259 -131 -318 -240 -56 -103 -74 -269 -43
-389 74 -281 360 -428 656 -335 83 25 139 61 199 127 188 205 178 528 -21 718
-120 115 -302 160 -473 119z"/>
<path d="M6325 7653 c-44 -6 -123 -32 -178 -60 -225 -113 -316 -438 -191 -685
35 -70 136 -168 204 -200 62 -29 187 -58 252 -58 111 1 249 55 333 132 107 97
157 214 157 363 0 168 -45 279 -151 377 -118 107 -264 153 -426 131z"/>
<path d="M5073 7010 c-107 -22 -226 -108 -295 -214 -54 -84 -78 -169 -78 -275
1 -151 36 -243 131 -345 97 -104 222 -157 374 -157 154 -1 248 37 354 142 75
75 101 120 126 214 19 74 19 223 1 292 -45 168 -172 294 -341 338 -63 16 -202
18 -272 5z"/>
<path d="M13025 6574 c-276 -29 -479 -84 -700 -189 -108 -51 -215 -112 -245
-137 -8 -7 -25 -18 -38 -25 -25 -13 -94 -70 -211 -172 -80 -70 -232 -248 -301
-351 -68 -103 -189 -354 -231 -481 -21 -63 -50 -180 -66 -260 -26 -134 -28
-160 -27 -389 1 -222 4 -258 28 -384 15 -76 44 -193 66 -260 44 -135 144 -345
214 -449 25 -37 46 -70 46 -72 0 -10 122 -156 198 -236 82 -88 222 -204 337
-281 80 -53 335 -183 380 -194 17 -4 35 -10 40 -14 49 -37 361 -97 574 -110
386 -23 698 39 1026 203 l130 65 8 -47 c4 -25 5 -98 2 -162 -9 -200 -60 -346
-183 -534 -51 -78 -193 -224 -265 -274 -87 -60 -246 -132 -350 -159 -88 -23
-122 -27 -252 -27 -132 0 -163 4 -253 28 -109 29 -198 69 -321 146 -140 88
-242 119 -356 107 -123 -13 -205 -49 -293 -130 -153 -142 -198 -389 -104 -576
90 -180 450 -387 852 -489 168 -42 310 -55 534 -48 328 11 555 64 817 190 167
81 276 150 409 261 166 137 221 196 377 399 68 89 209 371 253 508 36 109 73
290 92 444 10 85 13 349 13 1160 0 1038 -1 1052 -23 1210 -28 197 -34 223 -78
360 -72 220 -159 390 -289 565 -196 263 -462 484 -737 614 -277 131 -516 185
-843 191 -104 2 -208 1 -230 -1z m316 -965 c222 -22 425 -126 608 -308 128
-127 196 -239 260 -426 42 -125 55 -218 48 -355 -14 -281 -155 -558 -374 -738
-127 -104 -234 -165 -370 -211 -73 -25 -228 -51 -299 -51 -67 0 -295 43 -361
68 -157 60 -312 175 -461 345 -75 84 -183 296 -202 392 -21 111 -30 275 -20
374 30 305 252 634 535 791 199 110 386 145 636 119z"/>
<path d="M17315 6574 c-386 -56 -638 -144 -886 -310 -40 -27 -86 -56 -104 -66
-55 -29 -312 -286 -390 -391 -281 -373 -410 -763 -409 -1237 0 -191 14 -343
40 -433 8 -29 19 -72 24 -97 21 -112 157 -428 230 -536 17 -25 39 -63 50 -84
11 -21 23 -40 27 -42 5 -1 24 -23 43 -48 128 -167 358 -375 525 -472 348 -204
672 -291 1080 -292 213 0 307 11 497 59 253 65 508 186 707 336 113 85 345
318 404 404 26 39 58 86 72 105 13 19 36 58 51 85 14 28 32 57 39 65 20 23
120 275 150 378 51 178 65 266 71 477 10 325 -20 543 -108 794 -44 124 -167
361 -245 470 -123 171 -366 406 -548 528 -78 52 -235 131 -355 176 -254 98
-418 128 -720 132 -118 2 -228 1 -245 -1z m368 -969 c175 -26 276 -66 432
-170 83 -55 227 -196 282 -276 90 -130 157 -306 173 -450 19 -168 6 -311 -40
-449 -58 -175 -119 -270 -270 -420 -130 -130 -182 -167 -319 -226 -290 -126
-582 -118 -865 23 -124 62 -167 93 -282 208 -136 136 -218 273 -269 449 -65
227 -51 460 40 678 51 121 96 188 206 303 173 181 304 259 533 320 109 29 233
32 379 10z"/>
<path d="M8830 6543 c-62 -6 -233 -44 -315 -70 -102 -32 -278 -112 -375 -171
-251 -151 -512 -434 -639 -694 -102 -208 -151 -383 -170 -603 -13 -140 -13
-1319 -2 -1725 l8 -275 29 -50 c44 -78 148 -177 226 -214 82 -39 204 -56 301
-42 78 11 178 46 206 72 11 10 24 19 30 19 19 0 111 114 146 181 l36 68 9 898
c6 526 14 931 20 978 13 96 41 168 106 271 80 129 186 224 329 293 179 86 366
92 552 17 240 -98 407 -290 475 -546 19 -71 20 -119 26 -991 l7 -915 39 -80
c50 -101 120 -170 223 -221 l77 -38 156 0 155 0 67 34 c89 46 193 147 226 220
37 80 40 190 41 1242 l1 895 -44 155 c-94 331 -217 551 -430 767 -187 191
-316 283 -529 379 -259 116 -446 154 -750 151 -111 0 -218 -3 -237 -5z"/>
<path d="M3573 6343 c-3 -9 -3 -755 0 -1658 8 -1803 3 -1687 68 -1801 63 -112
208 -210 328 -223 101 -11 220 3 284 34 88 41 177 130 227 226 l42 81 -7 1232
c-4 677 -10 1287 -15 1356 -7 108 -12 135 -40 198 -75 175 -170 296 -312 399
-118 86 -222 127 -398 158 -114 20 -169 20 -177 -2z"/>
<path d="M6790 6350 c-116 -9 -199 -31 -307 -80 -100 -47 -155 -84 -240 -163
-120 -113 -190 -222 -242 -376 l-31 -94 0 -1329 0 -1328 35 -70 c46 -92 93
-142 173 -187 86 -48 148 -64 254 -65 194 -1 354 95 431 261 l31 66 8 1110
c10 1357 7 2258 -7 2260 -5 1 -53 -1 -105 -5z"/>
<path d="M5110 5722 c-67 -11 -158 -60 -212 -115 -28 -28 -63 -80 -84 -124
-34 -71 -38 -86 -45 -202 -4 -69 -8 -601 -9 -1182 l0 -1056 29 -71 c70 -170
189 -274 346 -303 80 -15 218 -6 283 19 117 45 217 149 272 282 l30 73 0 1147
c0 1112 -1 1149 -20 1204 -50 146 -133 248 -248 302 -51 24 -70 27 -177 30
-66 1 -140 -1 -165 -4z"/>
</g>
</svg>
