<?xml version="1.0" standalone="no"?>
<!DOCTYPE svg PUBLIC "-//W3C//DTD SVG 20010904//EN"
 "http://www.w3.org/TR/2001/REC-SVG-20010904/DTD/svg10.dtd">
<svg version="1.0" xmlns="http://www.w3.org/2000/svg"
 width="1500.000000pt" height="643.000000pt" viewBox="0 0 1500.000000 643.000000"
 preserveAspectRatio="xMidYMid meet">
<metadata>
Created by potrace 1.16, written by Peter Selinger 2001-2019
</metadata>
<g transform="translate(0.000000,643.000000) scale(0.100000,-0.100000)"
fill="#000000" stroke="none">
<path d="M0 3215 l0 -3215 7500 0 7500 0 0 3215 0 3215 -7500 0 -7500 0 0
-3215z m867 2691 c70 -27 133 -81 170 -143 54 -93 53 -53 53 -1334 l0 -1186
29 -88 c32 -95 86 -190 138 -244 18 -19 33 -38 33 -43 0 -4 5 -8 11 -8 7 0 19
-8 28 -18 21 -24 147 -102 164 -102 7 0 21 -6 32 -14 37 -24 78 -28 380 -35
218 -5 308 -10 330 -20 17 -8 45 -20 64 -29 38 -16 110 -86 127 -123 39 -85
44 -104 44 -179 0 -146 -66 -257 -188 -317 l-57 -28 -330 -3 c-379 -3 -574 10
-685 47 -19 7 -51 16 -70 22 -94 28 -254 112 -345 181 -33 25 -191 182 -215
214 -22 29 -73 106 -87 131 -35 67 -43 82 -63 128 -36 79 -64 179 -85 300 -12
66 -15 296 -15 1348 0 1141 2 1273 16 1318 9 27 20 49 25 49 5 0 9 7 9 15 0
22 101 120 141 137 19 8 50 22 69 31 58 26 202 22 277 -7z m2253 -144 c72 -23
111 -44 153 -84 79 -76 123 -193 115 -305 -9 -105 -40 -175 -112 -247 -52 -52
-72 -65 -131 -84 -272 -86 -515 81 -515 353 0 117 38 208 117 282 97 92 245
126 373 85z m1834 -12 c42 -16 76 -40 120 -84 52 -52 65 -72 84 -131 103 -328
-164 -596 -492 -493 -93 29 -181 112 -216 203 -59 152 -23 327 87 433 103 97
274 127 417 72z m-933 -464 c85 -26 155 -78 200 -148 62 -96 76 -230 37 -353
-19 -59 -32 -79 -84 -131 -44 -45 -77 -68 -120 -84 -182 -69 -380 -9 -475 145
-92 148 -73 345 44 468 45 49 98 82 162 102 55 18 180 18 236 1z m6089 -330
c123 -17 197 -31 231 -44 13 -5 42 -15 64 -22 22 -7 56 -19 75 -27 19 -8 44
-19 55 -23 222 -88 474 -300 624 -523 58 -88 66 -100 93 -157 47 -98 75 -164
88 -210 6 -25 16 -55 21 -68 17 -43 38 -167 51 -302 18 -191 18 -1494 0 -1670
-27 -258 -76 -420 -184 -609 -26 -46 -48 -88 -48 -92 0 -5 -3 -9 -8 -9 -4 0
-16 -16 -26 -35 -11 -19 -22 -35 -26 -35 -4 0 -19 -18 -34 -40 -61 -93 -271
-276 -401 -350 -73 -42 -184 -96 -235 -115 -45 -16 -53 -19 -165 -50 -201 -56
-530 -60 -725 -8 -30 8 -73 19 -95 25 -63 17 -195 70 -250 99 -27 16 -66 36
-85 45 -19 10 -37 20 -40 24 -3 3 -23 17 -45 31 -47 31 -125 108 -125 124 0 6
-5 16 -12 23 -18 18 -37 100 -37 162 -2 207 160 370 364 370 87 0 146 -21 255
-91 101 -65 164 -90 290 -114 120 -24 203 -18 359 25 51 14 201 90 229 117 10
10 39 35 64 55 25 20 70 70 101 111 55 72 127 210 127 242 0 9 5 25 11 37 15
28 27 181 20 250 l-6 57 -25 -14 c-24 -14 -47 -25 -92 -45 -13 -5 -30 -14 -38
-18 -40 -23 -61 -32 -74 -32 -8 0 -27 -6 -43 -14 -15 -8 -46 -19 -68 -24 -22
-6 -60 -16 -84 -22 -146 -39 -376 -49 -556 -25 -122 16 -302 58 -318 74 -6 6
-18 11 -26 11 -19 0 -202 90 -271 134 -51 32 -122 85 -174 129 -41 35 -126
117 -126 122 0 3 -16 21 -35 41 -19 19 -42 49 -52 65 -10 16 -21 29 -25 29 -4
0 -8 6 -8 14 0 8 -4 16 -8 18 -11 5 -85 125 -110 181 -81 175 -110 272 -141
468 -13 82 -14 336 -2 410 5 30 15 86 22 124 6 39 17 86 24 105 7 19 18 53 24
75 16 51 20 60 78 178 66 136 67 137 75 137 5 0 8 5 8 11 0 9 42 72 60 89 3 3
23 28 45 55 50 63 125 138 190 190 27 22 59 48 69 57 11 10 28 20 38 24 10 3
18 9 18 14 0 4 8 10 18 14 17 5 52 26 62 36 8 8 130 66 200 95 217 91 514 125
770 91z m3220 4 c122 -15 184 -28 275 -56 126 -40 203 -73 319 -138 79 -44
208 -146 297 -235 127 -127 218 -253 284 -391 9 -19 21 -44 27 -54 19 -36 59
-150 74 -211 8 -33 22 -91 31 -130 25 -102 25 -458 0 -570 -35 -154 -64 -245
-113 -352 -13 -28 -24 -57 -24 -62 0 -6 -3 -11 -8 -11 -4 0 -18 -22 -31 -50
-13 -27 -28 -50 -32 -50 -5 0 -9 -5 -9 -11 0 -10 -47 -80 -95 -139 -36 -45
-189 -195 -230 -225 -22 -16 -42 -32 -45 -35 -8 -9 -92 -63 -135 -87 -179
-103 -376 -168 -581 -192 -209 -25 -422 -5 -649 59 -123 35 -351 149 -425 212
-8 7 -32 26 -54 42 -46 33 -95 78 -139 125 -18 19 -44 46 -58 60 -14 14 -38
45 -54 69 -15 23 -32 42 -36 42 -5 0 -9 5 -9 10 0 6 -15 33 -34 60 -70 102
-186 371 -186 432 0 11 -4 28 -10 38 -18 33 -40 231 -40 354 1 192 41 411 105
565 45 108 138 276 178 322 8 9 28 36 44 60 36 52 141 160 209 215 27 21 51
42 52 47 2 4 10 7 17 7 7 0 15 3 17 8 3 7 76 57 113 77 11 6 40 23 65 36 50
28 154 71 215 90 22 7 58 18 80 25 38 12 108 26 225 43 80 13 272 13 370 1z
m-6331 -21 c111 -18 215 -44 276 -69 128 -53 235 -108 255 -130 3 -3 17 -11
31 -18 15 -8 38 -25 52 -38 14 -13 29 -24 32 -24 5 0 152 -147 191 -191 11
-13 29 -37 40 -54 10 -16 22 -34 27 -40 39 -51 127 -222 127 -247 0 -8 5 -19
11 -25 6 -6 14 -26 19 -44 5 -19 19 -72 32 -119 l23 -85 0 -770 c0 -749 -1
-772 -20 -815 -11 -25 -27 -54 -35 -65 -27 -35 -102 -105 -114 -105 -7 0 -17
-5 -24 -12 -35 -35 -209 -49 -292 -24 -120 36 -204 116 -247 236 -10 27 -13
187 -13 699 0 564 -2 675 -15 730 -9 36 -20 74 -25 83 -6 10 -10 22 -10 27 0
19 -71 129 -113 172 -73 78 -187 144 -289 168 -92 22 -246 8 -314 -27 -11 -5
-36 -18 -56 -28 -21 -10 -38 -22 -38 -26 0 -5 -6 -8 -12 -8 -17 -1 -98 -76
-135 -125 -29 -39 -74 -120 -88 -160 -25 -69 -29 -146 -34 -795 l-6 -695 -28
-57 c-28 -58 -96 -138 -116 -138 -6 0 -11 -4 -11 -8 0 -8 -40 -27 -105 -48
-49 -17 -176 -18 -224 -3 -107 35 -193 109 -238 206 -16 35 -18 100 -23 718
-6 835 -3 886 73 1110 14 42 55 137 67 155 6 8 14 24 19 36 41 93 238 320 346
399 22 16 42 32 45 35 3 4 12 9 20 13 17 8 53 30 60 37 7 7 124 64 175 85 78
33 182 62 285 80 94 16 331 18 419 4z m-4140 -155 c92 -19 206 -66 231 -94 3
-3 26 -21 52 -39 89 -63 187 -207 225 -331 16 -50 17 -146 20 -1048 l3 -993
-26 -57 c-33 -70 -94 -133 -165 -169 -44 -22 -70 -28 -141 -31 -76 -3 -97 0
-156 22 -103 40 -182 130 -211 241 -7 27 -11 448 -11 1278 l0 1237 53 0 c28 0
85 -7 126 -16z m2321 -1225 c0 -889 -3 -1253 -11 -1283 -20 -72 -39 -105 -88
-155 -120 -119 -327 -136 -469 -38 -51 36 -78 68 -111 131 l-26 51 0 995 0
995 24 75 c13 41 30 82 36 90 6 8 19 31 28 51 9 19 44 65 78 102 132 145 297
222 482 226 l57 1 0 -1241z m-1120 758 c97 -35 169 -109 207 -213 l23 -65 0
-864 0 -865 -27 -67 c-34 -86 -108 -162 -191 -194 -80 -32 -204 -32 -284 0
-83 32 -157 108 -191 194 l-27 67 0 870 c0 768 2 875 16 912 44 119 104 184
209 224 41 16 222 17 265 1z"/>
<path d="M9800 4240 c-92 -13 -222 -56 -260 -85 -8 -6 -27 -17 -41 -24 -15 -7
-38 -24 -52 -37 -14 -13 -28 -24 -30 -24 -6 0 -117 -111 -117 -117 0 -2 -11
-16 -24 -30 -13 -14 -30 -37 -37 -52 -7 -14 -18 -33 -24 -41 -16 -21 -60 -135
-76 -195 -29 -106 -12 -361 29 -441 5 -11 27 -55 48 -98 31 -62 59 -100 134
-176 52 -54 113 -107 135 -119 35 -19 71 -38 139 -73 26 -13 106 -33 199 -48
104 -17 253 2 352 45 17 7 49 21 73 31 23 10 42 21 42 26 0 4 6 8 13 8 17 0
170 123 189 152 9 13 27 37 42 53 14 17 26 33 26 37 0 4 6 13 13 20 21 23 65
120 92 206 23 71 27 101 27 202 0 101 -4 131 -27 202 -49 154 -103 246 -205
348 -103 104 -238 182 -375 218 -56 15 -219 22 -285 12z"/>
<path d="M13060 4244 c-93 -11 -227 -58 -305 -107 -27 -18 -51 -35 -53 -39 -2
-5 -9 -8 -15 -8 -15 0 -156 -144 -182 -185 -11 -16 -22 -32 -25 -35 -14 -12
-71 -140 -86 -190 -42 -147 -41 -301 2 -436 23 -73 52 -142 64 -154 7 -7 29
-42 37 -60 16 -33 127 -151 192 -202 42 -34 188 -107 238 -120 21 -5 80 -17
132 -25 80 -14 107 -14 175 -4 157 25 274 73 391 161 65 49 205 210 205 236 0
4 6 15 13 23 19 23 63 137 78 201 17 76 15 271 -5 340 -60 214 -179 377 -356
485 -63 39 -82 49 -145 75 -84 34 -256 56 -355 44z"/>
</g>
</svg>
